<svg xmlns="http://www.w3.org/2000/svg" viewBox="0 0 45 45"><defs><style>.a{fill:none;stroke:#979797;stroke-linecap:round;}.a,.b{stroke-width:2px;}.b{fill:#fff;stroke:#307594;}.c{fill:#307594;fill-rule:evenodd;}</style></defs><title>Artboard 1</title><path class="a" d="M7.12,16.68,1.3,22.5m5.82,5.82L1.3,22.5"/><path class="a" d="M37.88,16.68,43.7,22.5m-5.82,5.82L43.7,22.5"/><circle class="b" cx="22.5" cy="22.5" r="12.47"/><path class="c" d="M17.93,17.51h0a1.24,1.24,0,0,1,1.24,1.25v1.66a1.24,1.24,0,0,1-1.24,1.25h0a1.25,1.25,0,0,1-1.25-1.25V18.76A1.25,1.25,0,0,1,17.93,17.51Z"/><path class="c" d="M27.07,17.51h0a1.25,1.25,0,0,1,1.25,1.25v1.66a1.25,1.25,0,0,1-1.25,1.25h0a1.24,1.24,0,0,1-1.24-1.25V18.76A1.24,1.24,0,0,1,27.07,17.51Z"/><path class="c" d="M22.5,30.82c4.16,0,7.94-3.75,7.5-4.58s-2.51,2.08-7.5,2.08-6.65-2.91-7.07-2.08S18.34,30.82,22.5,30.82Z"/></svg>